<?xml version="1.0" standalone="no"?>
<!DOCTYPE svg PUBLIC "-//W3C//DTD SVG 1.1//EN" "http://www.w3.org/Graphics/SVG/1.1/DTD/svg11.dtd">
<svg xmlns="http://www.w3.org/2000/svg">
<metadata>Generated by Fontastic.me</metadata>
<defs>
<font id="untitled-font-13" horiz-adv-x="512">
<font-face font-family="untitled-font-13" units-per-em="512" ascent="480" descent="-32"/>
<missing-glyph horiz-adv-x="512" />

<glyph glyph-name="necro" unicode="&#97;" d="M335 1c0 42 0 83 0 123-52-4-102-10-154 4 0-42 0-84 0-128-24 21-30 46-31 73 0 25 2 50 3 75 0 3 0 6 0 8-6 27-1 34-34 32-10 0-19 0-29 0-30 0-43 33-34 52 14 30 11 60 13 91 1 29 7 58 18 85 20 44 54 71 99 83 48 13 97 14 145 0 61-18 96-62 109-123 5-24 4-49 6-74 0-18 2-35 9-52 7-16 8-32-1-48-7-12-22-17-36-15-12 1-24 2-36 1-10-2-12-11-12-20 0-29 1-59-1-88 0-17-3-34-8-51-3-12-10-23-26-28z m-156 333c-1 1-1 2-1 3-17-6-34-12-50-19-13-5-22-16-24-30-1-11-2-23-1-34 3-23 33-45 52-34 23 13 48 28 63 48 21 30 11 53-20 64-7 2-13 2-19 2z m235-69c1 0 2 1 3 1-4 13-6 30-15 40-19 19-44 29-72 27-16-1-40-19-43-31-4-20 3-35 23-48 12-8 24-16 35-25 15-11 31-12 47-4 15 9 24 21 22 40z m-153-6c-3 0-5 0-8 0-7-14-15-27-21-41-2-5 2-13 6-19 1-2 9 0 14 0 5 0 11 2 16 1 15-3 23 5 17 19-7 14-16 27-24 40z"/>
<glyph glyph-name="axe" unicode="&#98;" d="M265 489c17-8 34-16 51-24 10-5 10-16 14-24 5-11 14-13 23-4 6 4 9 10 19 7 7-3 16 2 15 12-2 13 6 14 14 15 19 2 30-15 24-32-1-5-4-8-10-7-8 3-12-3-15-9-4-7 1-10 5-14 4-4 8-8 13-12 26-20 52-19 78 3 3 3 6 6 9 9 15-89-20-173-151-174 6 8 13 16 18 23 11 17 21 33 14 54-4 15-31 37-46 39-4 0-4-2-6-4-36-46-79-85-118-128-44-49-90-95-134-143-6-6-12-12-20-16-10-5-15-14-19-25-4-11-12-17-25-15-11 1-17 8-18 19-1 11 4 18 15 22 7 3 13 7 16 13 16 29 42 51 64 75 56 61 113 119 168 180 14 15 27 31 39 47 7 9 12 20 19 30 2 3 2 13-5 15-34 9-37 42-51 68z"/>
<glyph glyph-name="dagger" unicode="&#99;" d="M499 474c-9-17-20-30-42-24-4 1-7-1-8-3-3-14-17-18-25-29-5-8-13-15-21-21-10-9-14-19-11-30 4-15-1-28-8-40-5-7-10-12-17-3-8 8-10-2-12-5-51-56-104-111-159-164-48-46-97-91-149-133-10-8-22-14-33-21-1 0-2 0-3 0-5 9 0 16 4 23 15 32 38 59 59 87 69 92 151 172 232 253 6 6 14 11 3 19-4 4-1 8 2 10 10 10 22 15 35 12 17-4 26-1 34 15 4 8 17 14 25 21 10 9 14 22 28 27 4 1 2 6 2 9 0 19 10 32 25 33 20 3 30-4 36-25 1-1 2-1 3-2 0-3 0-6 0-9z"/>
<glyph glyph-name="hammer" unicode="&#101;" d="M3 29c20 14 35 33 51 50 15 17 30 33 48 46 8 5 14 13 20 21 65 72 137 138 204 209 5 6 5 8-1 13-11 10-22 21-33 32-9 9-11 26-1 36 21 23 42 45 63 67 11 11 27 11 38 1 11-10 21-21 32-31 3-3 5-4 11-3 9 3 16-6 21-12 3-4 9-8 3-15-3-3 2-4 4-6 11-11 23-22 35-33 9-9 11-25 2-34-22-24-44-46-66-70-7-9-26-8-35 0-12 11-23 21-34 32-5 5-7 5-13 0-75-76-152-151-226-229-22-24-43-49-66-72-10-9-21-19-29-29-17-3-22 9-28 21 0 2 0 4 0 6z"/>
<glyph glyph-name="lb" unicode="&#102;" d="M489 509c-19 6-48 0-56-26-2-9-7-16-13-23-13-13-25-26-37-40-53-56-105-112-157-168-55-59-111-119-166-179-3-3-6-5-10-6-26-6-39-36-28-60 1-3 2-7 8-5 4 1 8 2 7 8-1 10 4 16 11 22 6 5 13 8 20 11 38 13 78 21 116 38 35 15 69 33 97 64-16 1-20 7-13 21 1 3 3 6 6 9 22 27 46 53 73 76 6 4 13 10 21 2 1-2 3-1 4 1 10 11 23 17 31 30 17 34 29 69 38 106 5 23 9 47 16 70 4 16 10 33 32 33 4 0 5 4 5 7 1 4 0 7-5 9z m-59-103c-14-41-40-74-69-106-35-37-69-76-104-114-40-42-79-85-132-111-20-10-41-12-65-15 127 136 252 270 378 406 2-22-1-41-8-60z"/>
<glyph glyph-name="mace" unicode="&#103;" d="M455 336c-10 4-18 15-31 7-10-7-22-9-27-21-3-5-7-9-11-15-2 5-2 9-4 13-2 6 1 14-8 17-11 3-19 0-26-8-24-25-48-51-72-77-32-36-65-72-98-107-4-5-8-9-8-16 0-6-4-11-8-16-25-29-52-59-77-89-11-14-26-20-43-22-13-2-20 6-18 20 3 17 10 31 22 45 25 27 49 56 73 84 7 8 15 13 25 12 5 0 8 3 11 6 50 55 101 110 151 165 4 5 7 8 11 12 14 15 7 44-13 51 10 4 11 12 10 21-1 10 3 20 8 29 3 7 5 14-3 22 16-4 23 8 33 11 17 5 9 18 11 28 0 0 2 1 2 0 13-20 36-15 55-23 4-1 6 1 9 3 5 5 11 10 17 15 7-12-7-27 4-38 9-9 12-25 31-22-11-8-11-18-12-30-1-17 14-15 19-25-9-7-23-1-31-15-7-13-3-24-2-37z"/>
<glyph glyph-name="pistol" unicode="&#104;" d="M60 229c16-1 32-4 48 0 27 6 44 25 62 44 65 68 130 137 196 206 9 10 19 20 28 31 5 3 8-1 11-3 10-10 20-20 30-30 3-4 7-8 0-13-33-34-66-69-98-103-34-35-68-71-102-106-5-5-7-9-1-16 21-23 22-46 5-75-8-15-19-28-31-40-5-5-5-7 0-12 12-14 27-24 43-33 19-10 18-29 10-42-12-21-30-32-53-36-8-2-15 0-22 0-26 9-43 29-56 51-28 45-31 92-8 141 1 1 2 3 1 6-6-1-12-4-18-6-26-8-40 0-45 26 0 3 0 7 0 10z"/>
<glyph glyph-name="rifle" unicode="&#105;" d="M450 502c-21-22-44-44-66-67-55-55-111-111-166-166-6-7-13-12-23-12-11 0-22-2-29-13-2-3-6-6-10 1-3 7-11 6-16 0-1-1-1-4-3-5-5 0-8-3-8-7 1-5 4-8 9-10 7-4 14-8 20-13 1-2 3-3 1-6-13-20-21-43-29-65-2-4-4-6-8-7-9-1-15-7-20-14-12-14-25-28-37-43-9-11-19-21-26-34 0 0 0-1 0-1 1-5 2-8 6-11 11-9 23-17 35-25 3-2 6-3 9-3 7 1 10 6 12 11 20 42 40 84 59 126 4 10 11 14 21 16 24 4 33 16 30 40-1 9 1 15 7 21 10 8 18 18 27 26 23 24 46 48 73 69 4 3 6 9 13 9 1 0 2 1 1 2-3 5 2 7 5 9 11 11 21 23 33 33 6 5 12 11 17 17 7 6 13 13 20 20 5 4 8 10 15 11 1 0 2 2 0 3-3 3 0 5 2 7 12 12 24 24 37 36 3 3 3 6 1 10-2 6-5 13 0 20 3 4 8 8 12 12 0 0 0 1 0 1-8 11-12 15-24 2z m-267-269c0 4-2 6 1 8 1 0 3-1 3-1 1-3-2-4-4-7z m13-56c-1-2-2-3-4-3-3 0-4 1-6 3-1 2 1 3 2 5 2 2 4 5 7 8 3-5 3-9 1-13z"/>
<glyph glyph-name="shield" unicode="&#107;" d="M509 248c0-1 0-1 0-2-2-4-4-8-7-11-33-33-66-66-103-95-56-45-114-85-183-108-64-21-129-33-196-30-18 0-19 3-20 21-3 91 18 177 57 259 16 32 37 59 57 88 36 50 78 95 123 137 7 5 14 4 21 1 54-28 112-37 172-39 8 0 16-1 24-1 8 0 12-4 12-11 0-9 0-17 0-25 1-7 0-10 1-20 3-19 5-38 8-58 5-30 14-60 28-87 3-6 4-13 6-19z"/>
<glyph glyph-name="sb" unicode="&#108;" d="M486 512c-11 1-16-7-17-15-1-9-6-14-11-20-7-7-14-14-20-21-65-69-129-137-194-206-60-64-121-128-181-193-11-11-20-21-36-25-10-2-15-10-15-21 0-6 1-10 8-10 7 0 10 6 8 10-4 8 2 8 6 8 14 3 28 5 42 8 88 18 174 40 247 95 3 2 6 6 9 2 6-7 9-2 12 2 20 21 40 41 60 62 4 5 16 9 5 20-1 2 1 4 3 7 48 76 66 159 67 248 0 9 0 18 0 27 0 4-3 12 7 6 4-2 10 3 10 8 0 5-4 8-10 8z m-28-138c-9-53-30-100-59-144-2-4-3-9-9-5-3 3-5-2-7-4-21-22-44-43-62-67-31-40-76-55-118-75-40-18-82-29-125-36-7-1-14 1-21-4-1 1-1 2-2 3 137 146 274 291 413 438 1-38-3-72-10-106z"/>
<glyph glyph-name="sword" unicode="&#110;" d="M504 509c-10-12-13-28-19-41-4-9-8-15-15-22-99-102-198-205-296-307 9-17 27-14 42-19-12-7-24-9-37-7-9 1-18 3-27 5-6 1-12 0-17-6-24-31-53-58-82-85-3-4-8-6-4-12 2-3-2-6-4-8-5-7-13-7-19-4-7 5-16 10-17 20 0 7 4 13 12 15 7 2 13 7 18 12 23 30 50 56 78 81 4 5 7 8 5 15-3 11-4 22-5 33-1 7-2 14 0 21 1 4 1 12 6 11 7 0 3-7 4-11 0-1 0-3 1-4 3-9 2-22 13-25 9-1 13 10 18 15 93 97 186 194 280 290 17 17 41 27 65 35 0-1 0-1 0-2z"/>
<glyph glyph-name="torch" unicode="&#111;" d="M326 479c3 4 7 6 9 10 9 8 17 18 28 24 4-1 5-4 6-7 0-18 1-36 11-52 5-7 10-14 17-19 5-4 8-9 10-15 1-5 3-10 4-15 0-9 5-12 13-13 0-1 1-2 1-3 2-10-2-19-1-29-2-9-6-17-10-25-7-13-12-27-16-42-1-3-3-7-5-10-6-6-9-13-13-19-13-12-25-25-41-34-11-3-19-11-27-19-1-1-1-1-2-1-14-3-26-9-36-20-6-6-13-13-20-19-3-2-4-6-5-9-2-6-4-10-9-14 0-3 0-6-4-8-2-4-5-8-11-5-4 2-8-1-11-4-24-21-46-44-67-68-19-21-39-41-61-59-7-5-18-3-29 5-8 6-9 14-9 23 0 2 3 4 4 6 34 34 71 65 104 100 5 5 10 10 15 15 4 4 9 8 7 15 0 1 1 2 1 3 12 8 16 23 29 31 8 6 10 16 15 24 5 8 10 16 20 18 1 0 1 2 1 2 3 15 5 30 13 43 6 10 1 19-3 28-2 8 2 15 2 22 1 2 1 4 2 6 4 6 14 6 16 14 1 1 3 1 4 1 3-1 5-3 6-6 1-2 2-5 3-7 2-5 6-8 12-8 6 0 7 6 8 10 1 3 2 6 3 9 2 4 4 7 7 11 1 1 3 2 5 3 10 9 12 14 6 29-1 3-2 6-2 10-1 6-4 12-5 18-1 2-1 5-2 7 0 2 0 3 0 5m122-23c0-3 0-7-4-8 0 1-1 2-2 3-1 1-1 2-2 3 3 4-5 12 6 13m-1-57c0 2 1 5 1 7 3 13 5 27 6 41-1 1-1 3 0 4 11 0 19-12 17-25-1-5-2-11-5-15-4-5-8-9-14-11-2 0-4-1-5-1z"/>
<glyph glyph-name="artstation-logo" unicode="&#112;" d="M460 35c-12 20-23 39-34 58-37 63-74 126-111 189-38 64-75 127-112 190-4 7-2 7 4 7 28 0 56 1 83 0 19 0 34-9 43-25 46-78 92-156 137-235 11-18 22-37 33-56 11-17 12-35 1-53-14-24-29-49-44-75z m-89 6c4-3 5-6-1-7-1 0-3 0-5 0-90 0-181 0-271 0-24 0-43 9-54 31-4 7-8 14-12 20-9 16-17 31-26 46-3 4-2 6 2 6 2 0 3 0 5 0 99 0 199 0 298 0 7 0 10-2 14-8 16-29 33-58 50-87-2-3-5-4-9-4-93 0-185 0-278 0-1 0-3 0-3 0 2-1 5 0 7 0 91 0 181 0 271 0 5 0 9 0 12 3z m-326 174c19 33 38 66 57 98 17 29 34 58 51 87 3 7 5 6 9 0 34-59 69-118 104-178 2-3 3-6 5-9 3-3 1-4-2-4-1 0-2 1-3 1-70 0-139 0-209 0-4 0-8-1-12 2-1 1-1 2 0 3z m326-174c-1-5-5-4-8-4-90 0-179 0-269 0-5 0-11 0-18 0 4 3 7 2 10 2 90 0 181 0 271 0 5 0 10 0 14 3 0 0 1-1 0-1z m-326 174c0 0 0-1 0-2 2-4 6-2 9-2 69 0 137 0 206 0 2 0 6 1 8-1 0-1 1-1 1-1-21 0-41-1-61-1-53 0-106 0-160 0-2 0-6-1-7 2 0 3 1 5 4 5z m246 261c-24 0-47 0-71 0-4 0-9 1-13-1-2-1-2 0-2 1-1 1 0 1 1 2 1 0 1 0 2 0 28 0 55 0 83 0 0-1 0-1 0-2z m-281-343c100 0 201 0 302 0 0 0 0 0 0-1-101 0-202 0-303 0 0 1 0 1 1 1z m258 77c-72 0-145 0-218 0-2 0-7-3-5 3 3-2 7-1 11-1 68 0 137 0 205 0 3 0 5-1 7-1 0 0 1 0 1 0 0-1-1-1-1-1z"/>
<glyph glyph-name="berserker" unicode="&#113;" d="M205 0c8 28 17 56 26 88-23 0-45 0-69 0 0 37 0 72 0 108 22-12 17-51 54-50 0 40 4 78-1 115-2 16-21 30-34 47 24 33 49 68 76 105 27-37 52-70 77-106-15-23-42-38-37-73 5-28 1-57 1-88 38 0 33 39 57 52 0-29 0-57 0-85 0-7 0-14 0-23-24 0-46 0-71 0 9-32 17-61 25-90-35 0-69 0-104 0z m177 485c8-17 16-33 24-49 9-17 21-34 27-53 13-43 2-79-33-110-24-20-43-45-64-69-5-5-10-11-16-18-14 30-8 65 15 86 7 7 16 14 25 20 28 19 35 45 26 77-6 20-13 41-18 62-5 20-1 39 14 54z m-186-297c-1 0-2 0-2 0-34 36-69 71-101 108-25 29-22 79 2 120 13 22 26 44 38 66 11-7 18-20 14-42-3-19-8-38-14-56-16-53-12-66 31-100 37-28 46-57 32-96z m-161 84c41-9 71-25 95-52 17-18 25-41 15-63-11-23-12-42 5-62-2-2-3-4-5-6-24 11-48 21-72 33-6 3-11 12-12 19-6 24-10 48-15 73 13-6 26-13 44-22-6 37-31 55-55 80z m390-80c17 9 30 16 43 23-4-25-7-50-15-73-4-12-16-24-28-31-17-9-37-13-60-21 4 9 8 16 9 22 0 11 2 24-2 34-11 28-8 53 13 76 24 26 54 41 92 50-20-26-48-43-52-80z m-254 120c-14 28-23 57-16 88 1 8 2 17 7 22 24 27 21 55 7 86 2 1 4 2 5 4 18-17 37-33 51-52 15-20 11-46-9-62-31-22-43-50-45-86z m172-5c-3 16-2 27-6 36-6 15-13 32-24 42-40 33-43 65-4 100 10 9 22 17 35 24-14-32-11-59 8-89 21-35 8-73-9-113z"/>
<glyph glyph-name="chrono" unicode="&#114;" d="M245 26c-13 2-26 5-39 7-40 9-71 32-96 63-2 2-2 6-2 10 3 0 7 1 10 0 14-7 27-15 41-22 115-60 266 23 282 150 1 9 1 19 1 29 22 0 44 0 66 0 1-3 3-6 4-9 0-11 0-21 0-32-3-13-5-26-9-39-26-79-84-124-161-147-17-5-34-7-51-10-15 0-31 0-46 0z m5 460c17-2 34-4 51-7 42-7 75-31 101-64 2-2 1-6 2-10-4 1-8 0-10 1-14 7-28 14-41 22-84 48-210 12-259-86-7-15-14-30-18-46-5-16-6-32-8-49-21 0-42 0-64 0-1 3-3 6-4 9 0 12 0 24 0 36 3 12 5 25 9 37 27 79 85 125 163 147 18 5 37 7 56 10 7 0 15 0 22 0z m174-229c0-93-76-169-169-168-94 2-166 75-167 169-1 92 75 167 168 167 92 0 169-77 168-168z m-170 33c1 0 2 0 3 0 0 3 2 7 2 10 3 24 6 47 9 71 1 10-4 17-13 16-10-1-14-7-13-16 3-21 6-42 9-63 1-6 2-12 3-18z m113-107c1 1 2 2 3 3-3 3-5 6-8 8-23 17-47 33-71 49-3 1-7 0-11 1 2-3 3-7 6-9 23-16 47-32 71-48 3-2 7-3 10-4z m-96 66c1 2 1 3 2 4-6 9-11 19-17 29-10-14-13-27-7-30 6-3 15-2 22-3z m-124 75c6-16 21-24 33-19-4 14-17 21-33 19z m158 10c14 4 22 18 19 33-14-4-23-18-19-33z m66-13c-16 2-30-6-32-20 15-2 28 5 32 20z m-228-125c17-2 31 7 33 20-16 2-28-5-33-20z m156-21c-2-15 6-27 19-32 4 15-5 30-19 32z m-43-43c9 10 9 26 0 37-11-10-11-28 0-37z m-92 130c-14 10-29 9-38-1 11-10 26-10 38 1z m180-6c11-9 22-9 33-5 1 0 4 3 4 5 0 1-2 4-4 5-11 4-22 4-33-5z m-129 82c2 16-6 30-20 32-2-15 5-27 20-32z m-4-156c-15-4-24-19-20-33 13 4 21 16 20 33z"/>
<glyph glyph-name="daredevil" unicode="&#115;" d="M512 32c-1 0-3-1-3-1 0-16-11-15-22-15-38 0-77 1-116 0-17-1-31 6-43 18-3 3-7 7-11 11-5 4-9 3-10-3-2-13-8-17-22-14-27 7-55 11-82 17-6 1-14 7-15 13-3 16-5 33-4 50 2 20 3 21-15 32-18 12-36 25-54 38 0 1 0 2 1 3 27 0 54 0 82 0 0 1 0 2 1 3-11 3-22 6-33 10-25 10-53 18-76 33-32 19-53 50-64 86-2 6-1 13-2 21 47-28 90-59 141-74 1 1 2 2 3 3-15 12-31 22-45 34-25 20-49 40-74 60-26 20-40 47-45 79-1 9-2 18-3 28 39-28 77-56 114-84 2 1 4 3 5 4-33 29-44 66-46 111 50-43 100-80 159-109 0 11 0 20 0 32 36-23 74-21 111-19 26 1 51 4 77 6 5 1 10 0 16 0-11-28-21-56-32-84-14-37-28-74-41-111-3-8-2-21 2-29 18-37 44-68 78-90 8-6 21-6 32-6 16 0 29-2 33-21 0 0 2-1 3-1 0-10 0-20 0-31z"/>
<glyph glyph-name="dragonhunter" unicode="&#116;" d="M262 79c57 60 96 130 129 207-34-16-65-32-96-47-1 1-2 2-3 3 3 22 7 44 10 66-11-5-31-17-44-23 0 18-25-29-21 16 1 3 32 44 34 46 53 60 105 109 158 162 0 0 1 1 5 3-24-64-47-126-70-188 42 19 81 41 117 70-51-145-108-286-225-394-116 108-173 249-225 391 38-23 77-46 116-69 0 1 1 2 1 3-23 61-46 123-69 184 2 1 3 2 4 3 3-3 6-8 9-11 49-51 99-101 149-151 5-5 12-9 21-16 0-82 0-168 0-255z"/>
<glyph glyph-name="druid" unicode="&#117;" d="M257 121c-74 0-134 60-134 134 0 73 61 133 134 133 72 0 133-61 133-134 0-72-61-133-133-133z m12 229c50-63 49-125 1-187 48 2 86 44 87 92 0 50-38 93-88 95z m-56 56c14 34 27 67 41 103 15-36 27-68 42-103-29 0-55 0-83 0z m299-149c-37-14-70-27-105-41 0 29 0 55 0 83 35-14 68-27 105-42z m-509-5c36 14 68 27 103 41 0-29 0-55 0-82-34 13-67 26-103 41z m257-252c-14 36-27 69-41 104 29 0 54 0 82 0-13-34-27-67-41-104z m79 396c28 11 58 24 95 40-16-37-28-68-40-95-18 18-36 36-55 55z m-165-6c-20-20-37-38-56-58-13 31-26 62-39 92 1 2 2 3 3 5 31-13 61-26 92-39z m257-309c-30 12-61 25-91 38 19 19 38 37 57 55 12-28 25-59 38-89-1-2-3-3-4-4z m-310 90c20-20 38-37 57-56-30-13-60-26-91-39-1 1-3 3-4 4 13 31 26 62 38 91z"/>
<glyph glyph-name="elementalist" unicode="&#118;" d="M239 0c-33 4-64 12-93 29-31 19-55 45-75 75-20 30-13 61-5 93 1 4 4 7 7 11 2-4 6-9 7-14 3-16 4-32 6-49 1-4 4-8 9-11-1 14-4 28-3 42 1 13 4 27 12 36 15 19 13 38 3 58-3 7-8 14-12 21-2 5-2 10-4 16 39-4 55-37 80-59 1 1 2 1 3 2-2 4-4 9-7 13-8 13-17 27-25 40-5 8-6 16 3 20 13 6 13 16 10 28-1 5 1 11 1 16 5-1 12-1 16-4 67-54 119-118 144-201 2-7 4-13 5-20 2-21-7-37-27-43-29-9-58-8-85 7-20 12-20 25-2 40 9 6 17 12 25 20-23 0-51-25-54-44-4-22 11-44 36-54 33-13 67-13 99 1 29 12 39 39 32 74-9 44-30 83-54 120-24 37-50 73-84 101-7 6-10 14-5 22 5 9 9 20 17 27 26 25 53 50 81 74 4 4 10 4 18 6-2-7-2-11-3-18 15 12 26 23 39 33 4 2 10 2 16 4-1-4-2-10-4-13-13-24-28-47-40-71-6-10-8-22-10-34-4-19 1-37 13-53 30-41 54-84 68-133 1-3 3-5 4-8 15 18 26 39 54 43-2-7-2-12-4-16-16-27-23-57-24-87-1-65-41-100-96-122-22-9-46-12-69-18-8 0-15 0-23 0z"/>
<glyph glyph-name="engineer" unicode="&#119;" d="M193 450c10 3 19 5 29 6 14 3 19 0 22-15 4-20 9-40 15-64 6 5 10 8 14 12 23 23 48 38 80 43 20 4 38-1 55-11 16-9 29-20 43-30 0-2 0-3-1-3-20-24-20-24-45-5-27 20-61 18-86-7-8-7-14-15-24-25 41-10 72-28 97-55 66-68 67-168 0-236-42-43-93-62-151-59-85 5-163 70-175 156-6 45 7 84 32 120 7 10 7 16 2 24-13 23-27 44-39 67-2 3 0 11 3 15 6 6 13 11 21 16 10 5 9 11 4 19-7 12-12 23-19 35-4 7-2 12 3 17 25 23 55 34 88 40 4 1 13-5 16-11 6-15 11-31 16-49z"/>
<glyph glyph-name="guard" unicode="&#120;" d="M9 418c-5 19 5 32 26 42 74 32 149 53 230 51 67-1 132-17 193-44 11-5 22-10 33-15 10-4 14-11 14-21-1-42-2-85-4-127-1-24-2-48-6-72-5-32-23-57-44-80-54-57-111-112-180-151-10-6-17-6-27-1-69 40-127 95-181 153-32 33-49 72-49 118-1 48-3 95-5 147z m246-296c1 0 2 0 4 0 1 5 3 9 4 14 10 26 19 51 29 76 4 10 11 14 22 13 10 0 20 0 34 0-34 26-36 32-27 65 18 64-7 123-67 157-9-9-17-19-27-28-40-37-51-81-34-133 6-17 6-33-9-46-5-4-10-8-18-15 12 0 21 0 29 1 14 1 23-4 28-16 6-16 13-32 19-47 5-14 8-28 13-41z m50 198c-3-10-9-29-16-48-5-15-12-29-19-44-6-12-19-14-25-3-15 33-34 64-37 101-3 31 18 55 47 57 28 1 51-23 50-63z"/>
<glyph glyph-name="herald" unicode="&#121;" d="M227 20c5 6 8 12 13 15 7 5 16 7 26 11-11 18-25 25-43 24-29-1-51 11-67 34-2 3-3 7-7 15 15-3 27-5 45-9-22 25-36 50-58 63-22 12-50 14-80 21 35 26 64 47 94 68-14 49-11 94 6 139 11-16 21-31 34-48 0 40 0 75 0 111 1 0 3 1 5 1 2-4 5-7 7-11 28-38 56-76 85-113 5-6 21-3 34-5 1-2 1-6 3-11 4-13 7-35 13-36 21-3 43 1 64 3 2 0 4 3 6 4 28 20 29 19 55-5 32-30 40-69 42-110 1-8 3-16 4-25 0-2 0-5 0-8-20 24-41 48-61 72-12-15-22-27-32-39-2-1-4-1-6-2 2 31-17 32-36 33-37 2-75 4-112 6-22 1-31-14-36-31-5-17-7-37 11-48 9-5 21-3 32-5-2-7-4-16-7-30 17 9 29 16 40 22-9 17-12 36-24 45-11 8-30 6-47 9 29 32 57 34 84 5 11-11 18-25 27-37 4 2 7 4 10 6 6 13 12 25 19 40 5-14 8-25 11-35 65 20 80 16 90-21-10 1-19 2-31 3 19-43 20-61 5-79-2 5-3 9-5 14-13 37-31 46-67 33-8-2-16-5-23-4-14 4-28 10-41 15-10-32-6-37 26-35 10 1 20 2 34 4-24-40-54-63-97-66-11-1-21-2-32-3-4 0-8 0-13 0z m11 255c17-5 29-8 41-11 1 2 2 4 2 6-7 7-13 13-21 20-6-4-11-8-22-15z m-73 217c-5-21-10-39-14-57-5-24-9-49-13-73-4-24-21-32-42-38-19 59 14 141 69 168z m-29-176c-3-15 0-34-8-46-33-47-54-43-86-8-12 14-23 30-38 51 46-14 88-25 126 7 2-2 4-3 6-4z"/>
<glyph glyph-name="mesmer" unicode="&#122;" d="M512 395c-29-34-43-76-54-118-7-31-14-62-35-86-19-23-18-53-30-78-3-5 1-12 1-18 0-19-13-28-31-21-24 11-44 27-61 47-16 20-21 22-40 18-1 3-1 6-2 9 0 40-2 80-1 120 0 24 11 46 24 66 25 38 55 70 96 92 36 19 73 17 110 0 9-4 15-14 22-21 1-3 1-6 1-10z m-157-139c-22 0-39-7-55-20-11-9-11-17 2-25 16-10 34-10 52-5 15 3 29 10 36 26 4 10 2 17-9 19-9 3-18 3-26 5z m-107-120c-22 15-32-2-43-16-17-20-36-36-59-47-15-7-30 0-29 16 1 22-5 40-14 59-2 6-2 14-3 20 0 3 0 6-1 7-31 29-39 69-50 108-7 22-14 45-21 67-3 7-8 14-14 19-21 20-18 45 8 57 39 18 79 17 116-6 45-26 78-64 101-110 6-12 10-26 10-39 2-42 1-84 0-126 0-3 0-5-1-9z m-72 64c11 3 22 5 32 11 13 7 12 15 1 24-21 17-46 23-73 17-20-5-24-14-11-29 13-16 31-21 51-23z"/>
<glyph glyph-name="ranger" unicode="&#65;" d="M11 160c-2 28 16 57 46 65 27 7 53 20 79 30 56 23 107 11 151-28 21-18 30-43 34-71 2-19 8-36 18-52 33-48 6-101-51-104-40-2-75 8-102 38-19 20-39 39-67 44-16 3-33 3-50 7-41 8-58 30-58 71z m424 148c-3-39-16-72-49-94-29-19-52-13-72 11-20 24-28 52-16 83 11 30 22 61 32 92 2 3 3 6 4 8 8 13 17 26 33 26 21-1 34-15 43-32 18-29 22-62 25-94z m-226-25c-66 1-89 51-74 93 4 12 15 25 27 31 33 21 69 37 103 56 16 9 27 2 38-5 11-7 19-18 15-31-12-36-23-72-39-105-15-29-45-36-70-39z m-206 40c0 48 31 68 70 49 50-22 50-85 19-116-25-24-64-18-78 19-2 5-4 11-5 17-3 12-5 24-6 31z m358-183c-1 25 10 47 40 48 13 1 25 4 38 5 20 1 34-12 34-32 1-37-44-75-80-68-22 5-32 20-32 47z m-32 313c-10 8-20 15-29 23-2 2-1 11 1 14 12 14 29 16 45 20 6-22-1-44-17-57z m51 49c6-15 13-29 18-44 3-10-4-15-13-13-7 1-13 2-19 2-16 0-21 7-14 21 6 12 15 22 22 33 2 0 4 1 6 1z m-364-88c5 9 9 18 16 25 3 3 11 3 16 1 3-2 4-9 4-14 0-7-2-14-4-20-1-8-1-17-12-17-10 0-15 7-17 16 0 2 0 5 0 7-1 1-2 2-3 2z m471-244c-5 9-9 15-12 20-8 14 4 35 19 36 8 1 18-20 13-29-5-9-12-17-20-27z"/>
<glyph glyph-name="reaper" unicode="&#66;" d="M217 512c10-8 20-16 31-23 78-54 132-128 164-218 12-35 23-70 35-106-10-7-21-14-33-22 19-5 34-9 50-13-36-21-70-39-103-62-27-18-50-40-76-61-4-3-10-5-16-7 0 6-2 12-1 18 16 64 50 118 104 158 11 8 15 15 9 28-16 34-28 72-48 104-33 53-55 56-98 12-41-42-78-89-118-136-14 8-20-4-27-18-10-21-22-41-34-62-2 1-5 2-8 3 9 50 14 100 27 149 21 84 63 159 112 231 6 8 11 16 17 25 4 0 8 0 13 0z m-114-359c52 18 91 2 115-50 13-28 24-56 35-84 1-4 0-8 0-12-5 1-10 1-13 4-9 8-16 17-24 25-38 39-76 78-113 117z m171 80c27 33 45 32 79 1-12-6-25-16-38-17-13 0-26 10-41 16z m-96-2c32 34 54 35 78 3-17-9-31-29-54-9-6 5-16 4-24 6z"/>
<glyph glyph-name="warrior" unicode="&#67;" d="M476 491c1 0 2 0 3 0 4-14 9-28 12-42 1-8-2-16-4-25 5 2 9 3 13 5 4-9 8-18 11-26 0-1 0-2 0-3-6-15-12-29-18-44 2 0 6 0 9 0 15-24 4-42-12-59 13-9 15-27 4-41-16-22-37-33-64-35-9-1-14-4-13-14 0-11 0-22-4-32-14-31-30-61-46-92-2-4-6-8-10-11-21-13-42-26-63-38-7-4-14-8-23-13 0 8 0 13 0 18 1 51 2 101 2 152 0 12 2 23 12 31 5 5 10 9 17 13 15 7 32 14 48 21 21 9 23 12 19 38-32-11-64-22-97-33-5 8-11 15-17 23-6-9-12-16-17-23-33 11-65 22-98 33-2-29-2-29 22-39 16-7 33-13 48-21 16-8 27-20 27-40-1-52 1-105 1-157 0-4 0-9 0-16-31 19-61 36-90 54-4 2-5 7-8 11-12 25-24 51-38 76-7 14-12 28-10 43 2 12-4 15-14 16-26 3-48 14-63 36-9 13-7 30 2 40-5 11-12 21-15 32-5 15 3 26 17 29-17 22-28 44-9 71 4-2 8-3 13-5-5 20-9 38 3 56 2 3 3 7 4 10 1 0 2 0 3 0 26-31 52-63 79-93 10-12 25-7 31 8 4 10 9 14 19 14 16 1 32 3 48 3 11 0 18 4 25 13 6 8 13 16 20 25 9-11 16-20 25-29 4-4 10-7 15-8 15-1 31-3 46-3 15 1 25-5 28-19 2-10 8-12 16-9 7 2 14 6 19 11 19 22 38 44 56 66 6 7 11 14 16 22z"/>
<glyph glyph-name="thief" unicode="&#68;" d="M506 46c-19-13-36-4-52 1-71 26-135 64-194 109-11 8-20 16-30 23-2 2-8 3-10 1-15-8-17-16-11-32 23-52 1-96-35-119-49-31-111-13-137 39-30 56 8 120 65 133 17 4 35 1 52-4 9-4 31 9 32 18 0 3-2 6-4 8-21 15-25 33-15 56 1 1 0 4-1 8-25-14-42-34-64-53-11 10-20 21-31 32 22 18 43 36 66 57-12 8-24 15-35 23-31 20-61 42-79 75-2 3-7 4-10 6-4 4-11 8-11 11 2 17 1 35 17 47 14 11 30 10 46 11 4 0 9-8 13-13 4-5 5-13 10-17 32-31 65-61 97-92 7-5 10-6 17 0 17 14 35 28 53 43 4 3 8 5 12 7 9-8 17-16 24-22-14-15-26-31-41-42-24-19-25-22 1-39 24-15 24-15 43 4 11 12 22 23 33 35 7 7 17 15 3 27 14 14 29 26 43 40 13 14 26 28 39 41 14-10 14-10 26 0 28-19 29-21 20-37 18-14 36-28 55-42-15-13-27-24-40-36-12 7-19 25-40 21-6-20 10-30 21-43-11-12-22-23-34-36-13 15-37 21-40 45 0 0-7 2-8 1-20-21-40-42-60-63-6-6-5-12 1-17 22-24 46-47 68-71 41-46 81-92 122-138 0-2 1-4 3-6z m-331 63c0 29-22 50-53 50-30 0-53-22-53-50 0-28 23-50 53-50 31 0 53 21 53 50z"/>
<glyph glyph-name="tempest" unicode="&#69;" d="M220 510c6-2 11-5 17-7 67-22 124-55 148-126 16-46 16-91-11-133-23-36-56-49-97-42-9 2-18 3-27 4-16-58 18-92 77-79 52 12 96 52 98 111 2 25 4 50 9 76 21-27 26-57 22-89 2-1 4-1 6-1 3 11 8 23 9 35 4 48-13 92-30 136-3 8-6 16-9 23 2 1 4 2 5 3 4-5 8-10 12-15 31-44 56-91 59-146 5-82-41-145-123-180-67-27-128-15-181 28-40 32-64 89-15 144 6 7 12 16 18 23-23 34-72 33-93 0-33-52-26-130 34-170 21-13 41-27 66-44-39-7-66 12-99 25 23-36 55-48 88-57 32-9 66-13 99-20-89-25-234 2-265 119-17 68-12 135 39 190 29 32 65 53 109 55 40 2 73-21 89-59 4-11 9-23 14-34 46 12 62 51 39 89-32 51-100 80-173 42-18-10-36-18-55-27-1 1-3 3-4 4 10 12 19 26 31 36 13 11 28 19 40 30-77-9-114-72-160-122 12 45 38 81 68 115 33 36 75 53 120 63 9 0 18 0 26 0z"/>
<glyph glyph-name="scrapper" unicode="&#70;" d="M230 186c-6-20-12-38-29-51-26-20-55-22-84-13-60 19-99 59-110 122-5 29 6 56 31 74 7 6 10 11 10 21 0 39 0 78 0 118 44 0 87 0 130 0 0-1 1-2 2-3-10-8-20-16-31-25 17-6 29 0 33 15 11 42 39 64 80 66 27 1 53-9 75-25 33-23 57-51 66-91 12-51-16-93-69-102-3-17 6-32 14-44 24-42 52-81 78-121 9-14 21-21 36-27 18-5 34-16 42-35 7-16 4-35-10-49-14-15-32-19-49-13-18 7-29 20-36 36-7 18-20 31-34 43-14 12-27 26-41 38-30 26-60 52-99 64-1 1-3 1-5 2z m-145 172c-9-8-17-16-26-25 27 0 30 2 26 25z"/>
<glyph glyph-name="revenant" unicode="&#71;" d="M19 342c-10 10-5 16 4 21 68 43 137 86 205 129 18 11 30 17 51 3 71-48 145-92 218-138 0 0 1-1 1-3-1-4-2-8-4-12-13 4-22 4-34-7-21-17-47-30-71-44-24-14-50-25-74-39-4-2-8-8-8-12-5-36-9-73-14-108-3-27-5-53-8-79-2-15-3-30-5-45-1-2-3-7-5-7-13 0-27-3-39 1-5 2-6 17-7 26-6 44-11 87-16 130-3 26-6 53-8 79-1 8-4 13-12 17-46 26-93 53-139 79-2 1-4 2-5 3-7 13-18 11-30 6z m51 12c0 0 0-1 0-2 5 0 9-1 13-1 40-1 81-1 121-3 11-1 18 2 26 10 28 29 23 28 52 0 5-5 13-10 19-10 43 1 85 2 128 3 4 0 8 1 16 1-6 4-8 5-10 6-49 14-97 29-146 43-14 4-28 12-45 6-50-16-101-29-150-44-9-3-16-6-24-9z"/>
<glyph glyph-name="commander" unicode="&#72;" d="M14 389l113 0 128 123 135-123 108 0-242-248z m0-63l242-235 242 235 0-87-242-239-242 239z"/>
<glyph glyph-name="crown" unicode="&#76;" d="M0 423l130-130 127 127 127-127 128 128 0-332-512 0z"/>
<glyph glyph-name="deadeye" unicode="&#83;" d="M12 263c15 9 31 17 45 29 16 14 29 33 46 48 16 16 34 30 52 44 4 3 10 2 15 3-2-4-3-10-6-13-26-34-44-71-44-115 0-43 17-80 43-114 4-4 5-9 7-14-5 1-12 0-16 4-18 13-35 28-51 43-19 18-36 39-56 56-9 9-23 14-35 21 0 3 0 5 0 8z m128-108c1 1 2 1 2 2-19 31-32 64-32 102 0 37 13 70 29 103-34-35-69-70-102-103 33-34 68-69 103-104z m365 100c-15-9-32-17-45-29-17-15-30-33-46-49-17-15-34-29-52-43-4-3-10-2-16-3 2 4 4 9 7 13 26 34 44 71 44 115 0 43-17 80-44 114-3 4-4 9-7 14 6-1 13-1 17-4 18-14 35-28 51-43 19-18 36-39 55-56 10-9 24-14 36-21 0-3 0-5 0-8z m-127 108c-1-1-2-1-3-2 43-68 42-137-1-205 1 0 2-1 3-1 35 35 70 71 104 105-16 15-34 31-52 49-17 17-34 36-51 54z m-119 15c65 0 119-54 119-119 0-66-54-119-121-119-65 0-118 54-118 119-1 65 54 119 120 119z m2-224c55-7 110 50 104 103-10-11-19-20-28-30-6-7-11-8-19-1-11 10-24 18-36 27-2 1-4 4-7 6 15 11 29 21 42 32 8 8 14 7 21-1 8-9 18-18 28-28 4 54-59 115-104 103 11-10 20-20 31-30 6-5 5-9 0-15-10-12-19-24-27-36-6-8-9-9-15-1-8 13-17 25-26 36-7 7-6 12 1 18 10 9 19 18 31 29-61 3-111-57-105-105 10 10 18 19 26 28 8 9 14 11 23 1 9-8 20-15 30-23 4-2 7-5 11-8-15-11-29-21-42-32-8-8-14-8-21 1-8 9-18 18-28 28-3-54 53-110 104-103-9 11-20 20-30 30-6 5-6 9-1 15 10 12 19 24 27 36 6 8 9 8 15 0 8-12 17-24 26-35 6-7 6-11 0-17-11-9-21-19-31-28z m-3 200c-9-9-17-18-26-27 9-11 17-22 27-33 9 12 17 22 25 33-8 9-17 18-26 27z m0-190c9 9 18 18 27 27-9 11-18 22-27 33-9-12-18-23-26-34 9-9 17-17 26-26z m-93 97c9-10 17-19 26-28 11 9 21 17 33 26-12 9-23 18-33 26-9-9-18-17-26-24z m128-2c12-9 23-18 34-26 9 9 18 17 25 24-9 9-17 19-26 28-10-9-21-17-33-26z m-34 191c11-17 19-30 29-45-20 0-37 0-57 0 5 16 17 29 28 45z m-10-33c7 0 12 0 19 0-3 5-6 9-10 15-3-6-6-10-9-15z m-20-304c21 0 38 0 59 0-10-15-19-29-30-46-10 17-19 31-29 46z m40-11c-8 0-13 0-21 0 4-6 7-10 11-16 3 6 6 10 10 16z m-129 53c-35 35-70 70-103 104 33 33 68 68 102 103-16-33-29-66-29-103 0-37 13-71 32-102 0-1-1-1-2-2z m238 208c17-18 34-37 51-54 18-18 36-34 52-49-34-34-69-70-104-105-1 0-2 1-3 1 43 68 44 137 1 205 1 1 2 1 3 2z m-117-209c10 9 20 19 31 28 6 6 6 10 0 17-9 11-18 23-26 35-6 8-9 8-15 0-8-12-17-24-27-36-5-6-5-10 1-15 10-10 21-19 30-30-51-7-107 49-104 103 10-10 20-19 28-28 7-9 13-9 21-1 13 11 27 21 42 32-4 3-7 6-11 8-10 8-21 15-30 23-9 10-15 8-23-1-8-9-16-18-26-28-6 48 44 108 105 105-12-11-21-20-31-29-7-6-8-11-1-18 9-11 18-23 26-36 6-8 9-7 15 1 8 12 17 24 27 36 5 6 6 10 0 15-11 10-20 20-31 30 45 12 108-49 104-103-10 10-20 19-28 28-7 8-13 9-21 1-13-11-27-21-42-32 3-2 5-5 7-6 12-9 25-17 36-27 8-7 13-6 19 1 9 10 18 19 28 30 6-53-49-110-104-103z m41 193c-1 0-2-1-2-1 3-5 7-10 10-16 5-12 7-13 21-6-10 8-20 16-29 23z m-85 1c-11-8-21-16-33-25 11-4 18-7 22 1 4 7 7 15 11 24z m32 69c3 5 6 9 9 15 4-6 7-10 10-15-7 0-12 0-19 0z m20-315c-4-6-7-10-10-16-4 6-7 10-11 16 8 0 13 0 21 0z m33 245c9-7 19-15 29-23-14-7-16-6-21 6-3 6-7 11-10 16 0 0 1 1 2 1z m-85 1c-4-9-7-17-11-24-4-8-11-5-22-1 12 9 22 17 33 25z"/>
<glyph glyph-name="firebrand" unicode="&#84;" d="M479 363c-28 53-67 93-123 116-21 8-43 12-65 15-23 0-45 0-67 0-10-4-19-2-29-4-81-20-137-68-166-147 0-2 0-4 0-5 1-7 7-8 13-9 30-4 53-19 72-43 13-18 21-38 22-61 1-14 3-16 17-18 6-1 12-2 18-4 13-5 23-13 24-28 1-15-7-26-20-32-15-7-16-16-2-25 33-22 55-54 70-90 3-6 5-12 12-15 1 0 3 0 5 0 7 4 10 11 13 18 14 33 34 62 64 84 19 13 19 18-1 30-22 12-23 38-3 53 9 6 19 8 30 9 10 0 15 6 15 16 1 50 42 101 97 107 6 0 9 3 11 8 0 1 0 3 0 5-4 6-4 13-7 20z m-159-68c-7 33-28 51-62 51-34 0-55-16-63-53-7 27 1 50 20 64 20 16 57 17 80 3 25-15 30-38 25-65z"/>
<glyph glyph-name="holosmith" unicode="&#85;" d="M11 89c12 8 23 15 34 21 9 4 11 10 10 20-8 64 43 119 107 116 7 0 14-1 24-2-4 5-6 8-8 11-42 54-22 131 41 158 8 4 11 7 11 16-1 14 0 27 0 41 19 0 38 0 59 0 0-14 1-28 0-43 0-7 2-10 8-13 68-30 87-104 41-163-1-2-2-3-4-6 4 0 7-1 10 0 69 11 128-45 120-115-1-10 1-16 10-20 11-6 21-13 34-20-10-17-20-34-31-51-13 8-26 15-38 22-4 2-11 2-14 0-63-42-136-19-163 51 0 2-1 3-3 7-2-5-3-9-5-12-25-65-101-88-158-47-7 5-11 5-18 0-11-7-23-14-36-22-11 18-20 34-31 51z m229 370c0-13 0-25 1-37 0-9-3-14-12-17-36-12-61-46-62-82-2-49 32-89 80-96 45-7 91 24 102 69 12 46-13 93-59 109-9 3-12 7-11 16 0 12 0 25 0 38-14 0-25 0-39 0z m-151-380c1 0 1 0 2-1 2-2 5-4 7-6 32-24 66-29 101-11 35 17 52 47 51 86-1 36-27 71-61 83-34 11-65 6-92-17-27-24-38-54-30-89 2-9 1-14-8-19-11-5-21-12-33-19 7-11 13-21 20-32 15 9 28 17 43 25z m384-25c7 11 13 21 20 32-13 7-23 14-35 20-6 4-9 8-7 16 10 40-7 79-41 100-33 20-75 17-107-8-31-25-42-70-27-106 16-38 54-61 94-57 23 2 43 13 59 29 15-9 29-17 44-26z m-242 164c6-8 10-13 14-18 3 5 5 10 8 14-7 1-13 2-22 4z m37-29c-6 0-11 0-17 0 3-7 5-13 8-21 4 8 6 14 9 21z m-2 25c3-5 5-9 8-14 5 6 8 11 14 17-9-1-15-2-22-3z m-26 245c14 0 25 0 39 0 0-13 0-26 0-38-1-9 2-13 11-16 46-16 71-63 59-109-11-45-57-76-102-69-48 7-82 47-80 96 1 36 26 70 62 82 9 3 12 8 12 17-1 12-1 24-1 37z m19-202c35 0 62 26 63 60 0 35-28 62-61 63-36 0-64-27-64-63 0-33 27-60 62-60z m-170-178c-15-8-28-16-43-25-7 11-13 21-20 32 12 7 22 14 33 19 9 5 10 10 8 19-8 35 3 65 30 89 27 23 58 28 92 17 34-12 60-47 61-83 1-39-16-69-51-86-35-18-69-13-101 11-2 2-5 4-7 6-1 1-1 1-2 1z m69 126c-35 0-63-28-63-63 0-33 27-60 61-60 36-1 63 25 63 60 0 35-27 62-61 63z m315-151c-15 9-29 17-44 26-16-16-36-27-59-29-40-4-78 19-94 57-15 36-4 81 27 106 32 25 74 28 107 8 34-21 51-60 41-100-2-8 1-12 7-16 12-6 22-13 35-20-7-11-13-21-20-32z m-111 151c-36 0-63-28-62-64 0-33 27-59 61-59 35 0 63 26 63 60 0 35-28 63-62 63z m-103 52c-35 0-62 27-62 60 0 36 28 63 64 63 33-1 61-28 61-63-1-34-28-60-63-60z m51 60c1 29-22 52-50 52-29 0-51-23-51-52 0-27 21-49 50-49 29-1 51 21 51 49z m-152-112c34-1 61-28 61-63 0-35-27-61-63-60-34 0-61 27-61 60 0 35 28 63 63 63z m50-63c0 29-22 52-51 52-28 0-51-23-51-52 0-28 24-50 52-50 28 1 50 23 50 50z m154 63c34 0 62-28 62-63 0-34-28-60-63-60-34 0-61 26-61 59-1 36 26 64 62 64z m-51-63c0-27 22-49 50-50 28 0 51 22 51 50 1 28-22 52-49 52-29 0-52-22-52-52z"/>
<glyph glyph-name="mirage" unicode="&#86;" d="M25 252c43 21 87 43 131 64 0 2 0 3 0 5-12 7-25 15-38 23 65 35 101 96 140 151 20-25 40-49 60-75-10-7-23-16-36-26 11-6 16 3 22 6 7 4 13 9 20 13 6-5 11-11 17-17-11-8-22-16-34-23 3-8 6-11 13-5 4 3 9 5 13 8 18 12 18 12 35-6-12-8-23-16-35-24 3-7 6-10 13-5 6 5 13 8 18 13 8 8 15 8 22-1 2-3 4-5 7-8-12-8-23-16-36-25 42-33 90-49 138-66-45-21-89-42-134-63 0-2 0-4 0-7 13-7 26-15 40-23-65-34-101-96-141-151-19 25-39 49-60 75 11 7 23 16 35 24-5 7-5 7-20-3-7-4-14-9-22-14-5 6-10 12-15 19 11 7 22 15 34 23-4 8-8 8-15 4-9-7-19-13-29-19-6 6-11 11-16 18 10 7 22 15 33 22-3 9-7 10-13 5-10-7-19-13-29-20-6 6-11 11-17 17 11 8 22 16 35 24-20 19-43 29-66 39-23 10-47 19-70 28z m236-221c33 48 66 95 114 129-12 9-22 18-36 30 42 22 81 42 121 64-41 17-83 32-118 64 14 10 27 18 39 27-2 8-7 9-13 4-10-7-20-14-30-21-7 6-12 11-19 17 13 9 25 17 38 25-1 2-1 3-1 5-4 0-9 1-12 0-6-3-11-7-17-11-18-12-18-12-32 5 0 1 0 2 0 3 12 8 24 17 36 25-1 1-1 3-1 4-4 0-10 2-13 0-12-7-23-15-35-23-6 6-12 12-18 19 13 9 25 17 37 26-15 17-29 34-43 51-34-48-66-95-115-129 12-10 23-19 36-29-42-22-81-42-122-64 43-17 85-32 120-64-15-10-28-19-40-27 3-8 7-9 13-5 10 8 21 15 32 23 6-7 11-12 17-18-13-9-25-17-37-25 3-8 6-10 13-5 6 4 12 8 18 12 15 10 15 10 27-3 2-2 3-3 5-6-13-8-25-16-37-25 7-8 7-8 13-4 12 8 23 15 35 23 7-7 13-13 19-20-13-9-25-17-37-25 14-18 28-34 43-52z m0 0c-15 18-29 34-43 52 12 8 24 16 37 25-6 7-12 13-19 20-12-8-23-15-35-23-6-4-6-4-13 4 12 9 24 17 37 25-2 3-3 4-5 6-12 13-12 13-27 3-6-4-12-8-18-12-7-5-10-3-13 5 12 8 24 16 37 25-6 6-11 11-17 18-11-8-22-15-32-23-6-4-10-3-13 5 12 8 25 17 40 27-35 32-77 47-120 64 41 22 80 42 122 64-13 10-24 19-36 29 49 34 81 81 115 129 14-17 28-34 43-51-12-9-24-17-37-26 6-7 12-13 18-19 12 8 23 16 35 23 3 2 9 0 13 0 0-1 0-3 1-4-12-8-24-17-36-25 0-1 0-2 0-3 14-16 15-16 32-5 6 4 11 8 17 11 3 1 8 0 12 0 0-2 0-3 1-5-13-8-25-16-38-25 7-6 12-11 19-17 10 7 20 14 30 21 6 5 11 4 13-4-12-9-25-17-39-27 35-32 77-47 118-64-40-22-79-42-121-64 14-12 24-21 36-30-48-34-81-81-114-129z m123 222c-42 31-84 64-125 95-41-32-83-64-124-95 42-32 84-65 124-96 42 32 83 64 125 96z m0 0c-42-32-83-64-125-96-40 31-82 64-124 96 41 31 83 63 124 95 41-31 83-64 125-95z m-21 0c-35 27-70 53-104 80-34-27-69-54-103-80 35-27 69-54 103-80 35 26 69 53 104 80z"/>
<glyph glyph-name="renegade" unicode="&#87;" d="M263 502c32-32 65-65 98-97 8-9 8-14 2-24-15-24-29-48-34-77-1-2-1-5-2-8 0-1 0-3 1-5 33-10 67-20 101-30 7-2 15-4 22-7 3-1 5-4 8-6-3-3-4-7-7-8-23-13-47-25-70-38-37-20-75-39-112-59-7-4-12-4-19 0-60 32-120 64-180 96-3 2-6 6-9 9 3 2 7 6 10 7 37 11 73 22 110 33 4 1 7 2 14 4-5 16-9 33-15 47-7 15-16 30-25 44-5 9-4 14 3 21 34 32 66 65 99 98 2 0 3 0 5 0z m104-236c1-3 1-3 1-4 1-1 3-2 5-4 14-11 14-14-2-21-34-15-68-30-102-44-4-2-11-3-16-1-35 15-71 31-106 47-11 5-11 9-2 16 4 3 7 6 11 9 0 1-1 1-1 2-23-6-45-13-69-20 3-2 4-3 5-4 54-29 108-57 163-86 4-2 12 0 16 2 52 27 103 54 154 82 2 1 5 3 9 6-23 7-44 13-66 20z m-200 123c31-39 41-88 47-138 1-4 4-8 8-10 36-22 37-22 74-1 5 2 9 9 11 15 4 18 4 37 10 54 9 29 22 56 34 84-29 29-60 60-91 91-30-31-61-62-93-95z m-10-141c35-15 67-29 99-43 4-2 10 0 14 2 26 11 51 23 77 34 5 2 10 5 16 8-14 10-25 19-39 29-2-10-4-17-4-25 0-13-6-21-19-26-11-4-21-11-32-16-5-1-12-2-16 0-14 6-28 13-41 21-4 2-8 8-9 12-3 11-4 21-6 34-14-10-26-19-40-30z m135-118c-3-40-9-78-24-115-1-4-5-6-8-10-2 3-6 6-7 10-15 38-22 77-24 118-1 13 3 15 14 9 12-7 21-9 33-1 14 8 17 5 16-11z m-49-7c1-28 6-58 18-87 10 30 16 59 17 87-12 0-23 0-35 0z m124 143c22-7 43-13 66-20-4-3-7-5-9-6-51-28-102-55-154-82-4-2-12-4-16-2-55 29-109 57-163 86-1 1-2 2-5 4 24 7 46 14 69 20 0-1 1-1 1-2-4-3-7-6-11-9-9-7-9-11 2-16 35-16 71-32 106-47 5-2 12-1 16 1 34 14 68 29 102 44 16 7 16 10 2 21-2 2-4 3-5 4 0 1 0 1-1 4z m0-45c0 1 0 2-1 3-5-2-10-4-15-7-26-11-52-22-77-34-10-4-18-5-28-1-17 8-35 15-53 22 20-13 41-24 62-35 3-2 8-2 11-1 34 18 68 35 101 53z m-200 168c32 33 63 64 93 95 31-31 62-62 91-91-12-28-25-55-34-84-6-17-6-36-10-54-2-6-6-13-11-15-37-21-38-21-74 1-4 2-7 6-8 10-6 50-16 99-47 138z m101 79c-30-26-55-49-80-73-2-2-1-10 1-14 18-33 31-67 33-104 1-21 11-31 27-38 8-3 14-5 21 0 5 3 10 5 15 7 9 3 12 9 13 17 5 43 14 84 39 120 2 3 2 10 0 12-24 26-48 51-69 73z m-25-345c12 0 23 0 35 0-1-28-7-57-17-87-12 29-17 59-18 87z m16-40c1 0 2 0 3 0 1 7 3 15 3 22 0 2-3 4-5 5-1-1-4-3-4-5 0-7 2-15 3-22z m108 138c-33-18-67-35-101-53-3-1-8-1-11 1-21 11-42 22-62 35 18-7 36-14 53-22 10-4 18-3 28 1 25 12 51 23 77 34 5 3 10 5 15 7 1-1 1-2 1-3z m-99 247c21-22 45-47 69-73 2-2 2-9 0-11-25-37-34-78-39-121-1-8-4-14-13-17-5-2-10-4-15-7-7-5-13-3-21 0-16 7-26 17-27 38-2 37-15 71-33 104-2 4-3 12-1 14 25 24 50 47 80 73z m-9-385c-1 7-3 15-3 22 0 2 3 4 4 6 2-2 5-4 5-6 0-7-2-15-3-22-1 0-2 0-3 0z"/>
<glyph glyph-name="scourge" unicode="&#88;" d="M195 196c-7-8-14-16-22-24-3-4-6-7-9-10-7-8-15-16-22-24-3-3-6-7-10-10-6-7-12-14-19-21-3-4-6-8-10-12-26-20-47-46-70-70-2-2-3-7-8-3-5 4-2 6 0 9 13 18 25 36 38 54 4 6 4 14 9 21 20 28 40 57 60 86 16 24 32 47 48 71 22 31 44 62 66 94 9 14 17 29 30 42 3 3 6 8-4 9-35 5-67-1-98-15-27-12-52-28-71-52-13-19-23-40-29-63-4-19-5-39-6-58-1-13 0-26 2-39 1-2 2-6-2-7-3-1-7-1-10 3-1 2-2 4-3 7-32 51-26 104-8 158 8 23 19 43 34 61 3 2 5 5 8 7 14 17 29 34 49 44 32 17 65 28 102 26 36-2 69-13 101-27 2-3 4-4 8-5 8-11 21-12 34-12 12-1 24 3 35-2-3-3-6-5-9-8-7-8-15-16-22-24-3-3-6-6-9-9-7-8-13-15-19-22-4-4-7-8-11-11-8-6-14-15-21-23-3-3-7-7-10-11-9-6-14-15-21-22-3-4-6-7-10-10-7-8-14-16-21-24-3-3-6-7-10-9-6-8-13-15-19-22-3-3-6-7-10-10-7-8-14-16-21-24-3-3-7-6-10-9z m201-129c-16-10-31-22-50-28-53-18-106-13-157 9-15 6-29 14-43 21-5 3-10 3-15 3-11-1-23-3-35 1 3 3 7 5 9 8 8 8 15 16 22 24 3 3 6 7 10 10 7 7 14 15 21 23 3 4 6 7 10 10 6 7 13 15 19 22 3 3 6 6 10 9 7 8 14 16 21 24 3 4 7 7 10 10 7 8 14 16 22 24 3 3 6 7 9 10 7 7 13 14 19 21 4 4 7 7 10 10 8 9 16 17 24 26 3 4 6 7 10 10 6 7 13 14 19 22 3 3 6 6 10 9 6 7 12 15 19 22 4 4 7 8 12 12 6 7 13 14 19 22 3 3 6 6 10 9 8 12 21 18 30 29 13 15 27 29 41 44 2 2 4 6 8 2 4-5 1-6-1-9-12-18-26-35-37-54-10-18-21-35-33-52-21-30-41-61-62-92-22-30-43-61-64-92-17-25-36-50-53-75-2-3-3-6-5-10 30-8 60-4 87 6 28 9 55 24 76 46 34 37 49 81 48 131 0 15 1 29-2 43 0 2-1 6 3 6 4 1 8 0 10-4 17-29 27-60 25-94-2-21-4-41-11-60-7-15-13-31-23-46-13-19-27-36-42-53-4-3-7-6-10-9z m-14 312c-3-6-7-9-12-12 2 6 5 11 12 12z m-34-19c1 6 6 8 11 11-2-5-5-9-11-11z m-31-34c1 6 5 9 10 11-1-5-5-9-10-11z m-214-231c1 6 5 9 10 12-1-6-5-10-10-12z m308 315c-2-5-6-7-10-9 2 4 4 9 10 9z m-33-17c1 4 4 8 9 9-1-4-4-9-9-9z m-27-48c-2-5-5-8-10-9 2 4 4 9 10 9z m-29-31c-2-5-5-8-10-10 2 5 4 9 10 10z m-36-20c2 5 5 8 10 10-2-5-4-9-10-10z m2-16c-2-5-5-7-10-10 2 5 4 9 10 10z m-33-17c2 4 5 8 10 9-2-5-4-9-10-9z m4-14c-1-5-5-8-9-10 1 5 4 9 9 10z m-33-18c2 5 5 8 10 10-2-5-4-9-10-10z m2-16c-2-5-5-8-10-10 2 5 4 9 10 10z m-33-17c2 4 5 8 10 9-2-4-4-9-10-9z m2-17c-2-4-5-7-10-9 2 4 4 9 10 9z m-33-17c1 5 5 8 9 10-1-5-4-9-9-10z m4-14c-2-5-5-8-10-10 2 5 4 9 10 10z m-36-20c2 5 5 8 10 10-2-5-4-9-10-10z m5-13c-2-5-5-9-10-10 2 5 4 9 10 10z m259-48c2 4 4 9 10 9-1-5-5-8-10-9z m13 359c1 5 4 8 9 8-2-4-4-7-9-8z m-304-345c-1-4-3-8-9-8 3 4 4 8 9 8z m244 367c-5-1-7 0-8 5 3-1 6-1 8-5z m-260-38c-1-4-4-5-8-7 1 5 3 7 8 7z"/>
<glyph glyph-name="soulbeast" unicode="&#89;" d="M228 5c-12 3-24 5-35 8-79 23-126 97-119 172 9 87 73 148 158 153 78 4 151-51 168-128 4-16 3-34 4-51 1-8-3-13-13-14-64-12-112-60-124-126-2-11-10-11-17-14-7 0-15 0-22 0z m-143 167c0-87 72-158 157-155 9 0 14 2 16 12 16 64 56 105 119 123 17 6 19 7 17 26 0 3-1 6-1 9-8 83-79 144-163 140-81-4-146-73-145-155z m150 332c0-4 0-9 0-13-3-12-9-25-9-38-2-29-1-58-1-87 1-11-1-16-14-16-7-1-15-4-22-8-7-4-11-4-14 4-8 17-15 35-34 45-2 1-2 8-1 12 13 47 38 84 87 98 2 1 2 2 3 3 2 0 3 0 5 0z m-52-151c7 2 13 5 19 6 10 1 13 6 13 17 0 36 0 72 0 109-2-1-6-3-10-5-25-14-39-37-50-63-4-12-7-21 7-29 7-5 10-14 15-21 2-4 4-9 6-14z m268-167c13-17 16-35 15-53-4-40-24-70-58-91-8-5-14-6-20 2-11 12-24 9-37 5-6-1-16-4-18-1-7 7-11 17-14 27-1 2 3 7 7 9 28 18 56 36 85 53 16 10 29 21 34 39 1 3 3 6 6 10z m-112-128c3 0 5 1 7 1 17 6 34 9 49-7 2-1 8 0 11 2 22 14 37 33 45 57 5 16 6 31 2 45-15-11-28-22-43-32-22-15-45-28-67-43-14-8-14-8-4-23z m-83 353c0 15 1 30-1 45-1 11-6 22-9 33 0 3-1 7-1 10 3 0 6 1 9 0 31-8 55-27 70-56 7-12 11-26 16-40 4-8 3-14-6-18-14-8-20-23-26-37-4-10-8-14-18-7-6 4-13 6-20 7-11 1-15 4-15 16 1 16 1 31 1 47z m8 73c1-18 2-35 2-52 1-20 0-41 1-62 0-3 2-9 5-10 8-4 17-6 22-7 12 14 23 27 34 41 2 2 2 7 1 10-8 17-15 34-25 49-9 15-24 25-40 31z m171-145c-1-7-2-14-3-21 0-10-4-16-15-20-9-3-16-11-23-17-5-6-9-7-14 0-10 11-20 21-31 31-5 4-7 8-4 15 7 21 15 43 21 65 3 12 2 25 3 37 1 3 1 6 2 9 3 0 7 0 9-2 32-24 55-54 55-97z m-47-47c10 7 20 13 30 19 2 2 4 6 4 9 8 39-6 71-35 96-1 1-3 1-4 1-4-15-7-31-12-46-4-14-10-27-14-41-1-3 0-9 2-12 9-9 19-17 29-26z m-342 45c2 47 24 77 57 101 5 4 11 3 9-4-7-36 13-65 22-97 4-14 4-22-9-30-9-6-16-15-22-24-5-6-8-8-16-2-9 8-21 14-31 21-2 2-4 5-5 8-2 11-4 21-5 27z m51 81c-29-18-48-67-37-100 0-2 1-4 3-5 10-7 21-14 31-20 8 8 16 16 25 23 6 5 7 9 5 16-10 29-18 57-27 86z m-12-246c-1 82 64 151 145 155 84 4 155-57 163-140 0-3 1-6 1-9 2-19 0-20-17-26-63-18-103-59-119-123-2-10-7-12-16-12-85-3-157 68-157 155z m150 126c-33 1-66-15-90-46-73-89-7-187 71-203 8-2 15-3 19 8 21 58 61 98 119 120 8 3 10 7 9 15-9 58-61 103-128 106z m-52 55c-2 5-4 10-6 14-5 7-8 16-15 21-14 8-11 17-7 29 11 26 25 49 50 63 4 2 8 4 10 5 0-37 0-73 0-109 0-11-3-16-13-17-6-1-12-4-19-6z m156-295c-10 15-10 15 4 23 22 15 45 28 67 43 15 10 28 21 43 32 4-14 3-29-2-45-8-24-23-43-45-57-3-2-9-3-11-2-15 16-32 13-49 7-2 0-4-1-7-1z m-75 426c16-6 31-16 40-31 10-15 17-32 25-49 1-3 1-8-1-10-11-14-22-27-34-41-5 1-14 3-22 7-3 1-5 7-5 10-1 21 0 42-1 62 0 17-1 34-2 52z m124-192c-10 9-20 17-29 26-2 3-3 9-2 12 4 14 10 27 14 41 5 15 8 31 12 46 1 0 3 0 4-1 29-25 43-57 35-96 0-3-2-7-4-9-10-6-20-12-30-19z m-291 126c9-29 17-57 27-86 2-7 1-11-5-16-9-7-17-15-25-23-10 6-21 13-31 20-2 1-3 3-3 5-11 33 8 82 37 100z m138-120c67-3 119-48 128-106 1-8-1-12-9-15-58-22-98-62-119-120-4-11-11-10-19-8-78 16-144 114-71 203 24 31 57 47 90 46z m4-11c-57 1-108-47-114-107-5-52 36-108 89-119 8-2 11 1 14 8 21 55 61 93 115 115 8 4 10 8 7 16-12 49-61 87-111 87z m0-10c44-1 83-30 98-71 2-7 2-11-6-14-50-24-89-61-111-113-4-8-9-8-15-5-45 17-91 70-63 137 18 42 56 68 97 66z m-94-106c0-34 24-70 56-84 6-2 9-1 12 5 23 47 58 82 105 105 8 4 8 8 5 15-20 40-64 62-105 53-40-9-73-51-73-94z m0 0c0 43 33 85 73 94 41 9 85-13 105-53 3-7 3-11-5-15-47-23-82-58-105-105-3-6-6-7-12-5-32 14-56 50-56 84z"/>
<glyph glyph-name="spellbreaker" unicode="&#90;" d="M255 20c-18 43-35 87-53 130-2 6-1 9 5 13 7 4 14 9 21 13 7 4 6 8 2 13-13 15-25 31-38 47-3 3-4 6-3 10 22 83 40 166 63 248 4 0 7 0 10 0 19-64 33-129 50-194 4-17 8-34 13-51 1-6 1-10-3-14-12-15-24-30-36-45-5-6-7-9 1-14 10-6 24-10 26-20 2-9-6-20-10-30-15-35-29-70-43-106-2-1-4-1-5 0z m-185 258c5 6 4 14 6 21 10 34 28 63 53 88 7 6 10 13 9 22 0 13 0 27 2 41 12-19 23-38 34-57 5-8 13-16 14-24 1-11-13-12-19-18-51-48-68-130-37-187 13-25 33-46 57-61 4-3 9-4 5-11-4-6-7-1-10 0-47 24-87 55-106 107-3 9-3 20-8 28 0 4 0 8 0 12 2 11 2 21 0 31 0 3 0 5 0 8z m375-51c-5-3-3-8-4-12-13-53-49-88-95-115-5-3-11-6-16-9-4-1-7-5-10 1-3 6 0 8 4 10 31 20 54 46 67 81 21 60-8 146-61 179-7 4-5 6-2 11 15 24 30 49 46 75 2-17 0-32 2-46 1-5 2-9 6-13 32-30 53-67 61-111 0-1 1-2 2-3 0-5 0-9 0-14-2-7-2-15 0-22 0-4 0-8 0-12z m-375 43c4-10 3-20 0-31 0 11 0 21 0 31z m375-31c-4 7-4 15 0 22 0-7 0-15 0-22z m-190-219c1 0 3 0 5 0 0-2 0-4 0-7-2 0-4 0-5 0 0 3 0 5 0 7z m56 456c10-9 18-17 26-24 10-8 9-17 5-26-9-18-14-39-26-57 0 0-1 1-1 1-28 14-16 37-13 58 2 16 6 31 9 48z m-107-6c6-23 8-47 14-71 3-17-12-21-20-33-10 25-20 48-29 72-3 6 4 8 7 12 3 4 6 9 11 11 7 0 8 12 17 9z m0 0c-8 0-9-11-17-9 4 4 8 9 13 13 8 5 3-3 4-4z"/>
<glyph glyph-name="weaver" unicode="&#48;" d="M253 4c-29 43-44 89-30 140 3 10 7 19 12 27 17 25 34 51 53 78-11 9-22 19-35 29 14 11 25 19 35 26 26-25 51-51 77-77-1-2-3-5-6-9-23-32-46-65-71-97-24-33-37-69-35-109 0-3 0-5 0-8z m99 222c-22 22-43 43-65 65-4-3-9-7-18-14 12-9 23-17 33-25-3-4-3-5-3-5-19-28-37-55-55-82-21-30-21-89 0-123 4 40 24 71 47 100 13 17 25 34 37 52 9 11 17 22 24 32z m-126-24c-26 26-51 51-78 77 7 9 14 19 21 29 17 22 32 45 49 67 30 37 48 79 45 128 2-2 4-5 6-8 22-38 34-78 25-122-3-13-8-26-15-37-16-26-34-51-52-77 11-10 22-19 35-30-15-11-26-20-36-27z m-14 53c20 29 38 54 54 80 9 15 16 32 19 49 6 28-1 54-13 80-6-28-15-53-31-75-10-14-20-27-30-41-16-23-33-46-48-67 21-22 42-43 64-65 4 3 10 7 17 12-11 10-21 18-32 27z m-70 18c24-26 47-50 70-75-10-8-19-16-26-22-23 21-45 42-69 63 9 12 17 22 25 34z m-10-33c18-17 35-33 54-50 2 2 6 5 11 9-18 19-35 37-54 57-4-6-7-10-11-16z m265 28c-9-12-16-22-25-34-23 25-46 50-70 75 10 8 20 16 27 21 23-20 45-41 68-62z m-79 40c18-19 35-38 53-57 5 6 8 11 12 16-18 17-36 33-54 50-2-2-6-5-11-9z m34-82c-7-10-15-21-24-32-12-18-24-35-37-52-23-29-43-60-47-100-21 34-21 93 0 123 18 27 36 54 55 82 0 0 0 1 3 5-10 8-21 16-33 25 9 7 14 11 18 14 22-22 43-43 65-65z m-111-138c12 17 23 35 35 52 18 27 38 53 56 79 2 3 4 9 2 12-5 7-12 12-19 20-23-36-46-68-67-103-11-18-12-40-7-60z m-29 167c11-9 21-17 32-27-7-5-13-9-17-12-22 22-43 43-64 65 15 21 32 44 48 67 10 14 20 27 30 41 16 22 25 47 31 75 12-26 19-52 13-80-3-17-10-34-19-49-16-26-34-51-54-80z m-80-15c4 6 7 10 11 16 19-20 36-38 54-57-5-4-9-7-11-9-19 17-36 33-54 50z m186 68c5 4 9 7 11 9 18-17 36-33 54-50-4-5-7-10-12-16-18 19-35 38-53 57z m-77-220c-5 20-4 42 7 60 21 35 44 67 67 103 7-8 14-13 19-20 2-3 0-9-2-12-18-26-38-52-56-79-12-17-23-35-35-52z"/>
<glyph glyph-name="scepter" unicode="&#106;" d="M494 489c-2 2-4 4-5 5-8 7-12 7-19 0-7-8-15-15-27-11 0 0-1 0-2 0 0 0 0 0 0 0-6-1-11-1-17-2-16-3-32-9-43-21-12-12-22-25-33-38-9-12-15-25-15-40 0-10-5-18-11-26-3-3-5-7-7-11-1-1-1-2-1-3 2-6-2-8-6-12-29-28-60-57-89-86-19-21-40-40-62-57-10-7-18-16-27-24-7-7-15-14-22-21-7-6-15-12-21-19-13-15-24-32-37-47-6-6-14-11-22-17-2-1-5-3-6-5-8-12-7-22 2-33 1-2 3-4 4-6 4-5 9-5 13-1 2 2 3 3 4 5 10 13 18 27 29 38 24 24 49 46 73 69 20 18 39 37 60 53 28 22 53 47 77 73 13 14 24 29 36 43 8 7 13 19 26 18 1 0 2 1 3 2 10 8 21 11 33 13 13 2 26 8 38 16 26 16 48 36 63 64 6 13 10 27 5 41-2 9 0 16 6 22 7 8 7 12 0 18z m-51-54c-9-10-18-20-28-30-6-6-13-12-19-18-2-2-4-4-7-5-1-1-4-1-5 0-1 1-2 4-1 6 0 3 1 7 4 9 12 15 23 31 41 40 5 3 11 5 16 7 1-1 1-2 2-2-1-3-2-5-3-7z"/>
<glyph glyph-name="focus" unicode="&#109;" d="M448 411c-22 11-22 27-20 48-12-14-18-31-42-23-18 6-27 17-27 36-3-8-6-16-9-24-36 7-36 7-52 36-2-12-3-22-5-34-11 1-24-2-32 2-8 5-13 17-21 28 0-13-1-23-1-33-21-7-42-13-53 15 2-10 4-19 6-29-13-5-24-10-35-14-7 7-14 13-20 19-1 0-1-1-2-1 4-9 7-18 11-26-9-7-17-12-25-18-7 5-14 9-22 14 0-12 14-22 0-36-11-12-20-13-34-6 20-20 9-35-2-51-8 3-14 6-21 8 0-1-1-1-1-2 5-5 10-10 14-14-3-10-3-20-8-26-4-6-13-8-20-11 7-6 20-8 15-26-3-14-5-24-22-25 27-5 14-27 21-40-8-3-14-5-21-7 23-11 23-11 32-42-4-3-9-5-16-9 9-1 15-2 18-2 6-13 11-25 17-36-6-4-11-8-20-15 12 1 20 2 26 2 5-11 10-22 15-32-2-3-5-6-11-12 16 3 29 3 41 7 18 7 35 16 53 25 45 20 90 41 138 63-7-11-12-20-17-29 31-14 67-9 79 12 6 9 7 22 8 34 1 17-3 34-19 45 20 33 39 65 58 97 23 40 46 80 68 121 4 7 5 17 8 29-18-12-27-30-50-18z m-211-301c15 3 28 6 42 8-33-18-36-19-42-8z m-22 10c0 0-8 11-1 13l66-4z m-11 32c0 0-9 7-1 17l81-31z m2 35c0 0-6 15 8 16l69-50z m18 34c0 0-5 16 11 12l58-75z m34 20c0 0 7 15 13 8l29-91z m53-71l-21 68c0 0 9 12 16 1z m16 29c-3 12-8 24-2 35 2 0 4-1 6-1-1-12-3-23-4-34z"/>
<glyph glyph-name="warhorn" unicode="&#73;" d="M11 126c12 15 22 30 34 44 14 17 29 33 44 49 11 12 23 22 36 32 15 12 31 23 47 32 13 7 26 13 40 17 22 6 45 10 67 15 12 3 23 6 34 9 17 5 34 11 50 19 19 10 36 22 52 37 15 16 28 34 38 53 3 6 6 11 9 17 2 3 3 6 2 10-1 3 2 7 3 11 2 5 5 9 7 15 7-6 12-10 17-16 3-3 5-7 8-11 5-5 2-11 1-16-9-29-19-57-32-84-12-26-27-51-44-74-13-16-26-30-42-43-17-13-34-26-52-36-6-4-13-7-20-10-18-9-33-22-45-38-16-20-28-42-37-65-5-13-9-26-14-39-1-5-2-10 0-15 1-2 1-6 2-9 2-5-1-8-6-7-8 2-15 3-22 5-33 9-65 20-95 36-23 11-43 25-62 42-7 6-13 13-20 20z"/>
<glyph glyph-name="staff" unicode="&#74;" d="M354 366c-2 9-2 9 5 13 9 5 17 9 26 14 5 3 10 7 15 12 4 4 5 10 3 15-2 6-6 7-12 7-5 1-10 1-16 2-5 0-7 3-7 8 1 13 6 25 20 30 12 4 25 8 38 11 6 1 11 2 11 10 0 4 3 5 7 5 23 3 38-1 50-25 11-23 7-48-2-66-5 1-7-2-9-6-15-36-44-56-80-68-2-1-4 0-7 0-3 0-6 2-8 0-28-16-58-26-90-32-11-2-18-9-23-19-20-37-43-74-78-100-10-8-17-20-26-29-8-8-17-16-26-23-12-8-22-19-32-29-15-16-32-31-47-47-8-8-14-17-22-26-6-7-16-7-24 0-7 5-8 13-2 21 12 15 25 29 37 44 5 5 8 12 13 17 8 8 17 15 25 23 12 10 24 20 36 31 16 14 33 28 49 42 12 11 21 24 29 39 5 12 13 23 19 35 3 9 6 18 8 27 3 16 9 29 20 40 4 4 10 7 16 8 17 4 35 6 53 9 10 2 21 5 31 7z"/>
<glyph glyph-name="greatsword" unicode="&#100;" d="M253 88c-12-7-35-10-48-8-9 1-45 37-54 38-6 1-15 2-20-5l-111-107-11 13 108 110c5 4 6 10 4 18-3 10-43 53-45 64 1 6 0 15 2 22l5 24 51-60 13 77 22-59 268 279 60 11-11-51-272-282 62-22-76-15z"/>
</font>
</defs>
</svg>
